<svg width="44" height="44" viewBox="0 0 44 44" fill="none" xmlns="http://www.w3.org/2000/svg">
<path d="M22 27.5V3.66667M22 3.66667L27.5 10.0833M22 3.66667L16.5 10.0833" stroke="#FF8728" stroke-width="3" stroke-linecap="round" stroke-linejoin="round"/>
<path d="M14.6641 40.3333H29.3307C34.5154 40.3333 37.1096 40.3333 38.7192 38.7237C40.3307 37.1103 40.3307 34.5198 40.3307 29.3333V27.5C40.3307 22.3153 40.3307 19.723 38.7192 18.1115C37.3112 16.7035 35.1516 16.5257 31.1641 16.5037M12.8307 16.5037C8.84323 16.5257 6.68356 16.7035 5.27556 18.1115C3.66406 19.723 3.66406 22.3153 3.66406 27.5V29.3333C3.66406 34.5198 3.66406 37.1122 5.27556 38.7237C5.82556 39.2737 6.48923 39.6348 7.33073 39.8732" stroke="#FF8728" stroke-width="3" stroke-linecap="round"/>
</svg>
